<svg width="88" height="93" viewBox="0 0 88 93" fill="none" xmlns="http://www.w3.org/2000/svg">
<path d="M46.8824 0.456955C44.9837 1.1271 43.487 3.49495 43.6657 5.52773C43.9785 8.72209 47.3739 10.7549 50.2778 9.50393C51.7298 8.87846 52.668 7.82856 53.1148 6.3319C53.8296 3.91938 52.735 1.68556 50.3225 0.590985C49.1609 0.0548683 48.111 0.0101912 46.8824 0.456955Z" fill="url(#paint0_linear_25_372)"/>
<path d="M45.5198 15.8032C45.0284 16.0936 44.4029 16.7191 44.1348 17.2105L43.6211 18.1041V34.1429C43.6211 47.1437 43.6881 50.3158 43.9338 50.8966C44.3135 51.8124 45.4081 52.8623 46.3463 53.2197C47.2845 53.5548 49.295 53.5771 50.4342 53.2644C51.6405 52.9293 52.8691 51.6114 53.2041 50.3158C53.5169 49.0648 53.5392 19.6901 53.2265 18.3498C53.0031 17.3446 52.467 16.5404 51.5735 15.8926C51.0597 15.5128 50.5682 15.4235 48.6918 15.3565C46.6591 15.3118 46.324 15.3565 45.5198 15.8032Z" fill="url(#paint1_linear_25_372)"/>
<path d="M67.9698 26.3246V30.4348L68.9303 31.105C71.5662 33.0261 75.1404 37.449 76.9498 41.1125C77.7763 42.7432 78.8262 45.7365 79.4069 48.0373C79.8537 49.8244 79.9207 50.5839 79.9207 54.7388C79.8984 58.782 79.8314 59.7202 79.4293 61.4403C78.223 66.4217 75.8999 71.001 72.6608 74.8432C68.4389 79.8246 61.5587 83.7115 54.7903 84.9177C51.6852 85.4762 46.4358 85.4315 43.4648 84.806C37.3441 83.5328 32.4744 80.9639 28.0291 76.6526C23.4721 72.2296 20.6351 67.1812 19.2502 60.8818C18.8034 58.8937 18.714 57.9555 18.7364 54.6271C18.7587 50.2935 18.9598 49.0202 20.3001 45.044C21.7967 40.5317 23.8965 37.0693 27.1355 33.7186L29.1013 31.6858V27.5309C29.1013 25.23 29.0566 23.3536 28.9896 23.3536C28.7439 23.3536 27.8504 23.9344 26.309 25.0737C22.5339 27.8659 17.8429 33.5845 15.609 38.1862C14.2687 40.8891 12.7274 45.6025 12.2136 48.4841C11.7445 51.187 11.6552 57.7098 12.0796 60.2117C14.2017 72.9891 21.8637 83.2424 33.3902 88.6929C35.6017 89.7428 39.2875 91.016 40.2481 91.0831C40.5608 91.1054 40.9406 91.1947 41.0746 91.2841C41.1863 91.3958 41.7447 91.5075 42.3032 91.5745C42.8393 91.6415 44.0009 91.7979 44.8497 91.9543C47.4857 92.3787 54.1648 92.0883 57.2474 91.3958C64.3733 89.8321 70.427 86.5931 75.6095 81.5223C79.7867 77.4568 82.0652 74.0613 84.5671 68.2534C85.751 65.5058 86.7786 60.7031 87.0466 56.7492C87.2923 53.1305 86.6892 47.881 85.6393 44.4632C82.8694 35.4833 77.9773 28.8265 70.3823 23.6217C69.2431 22.8622 68.2602 22.2367 68.1485 22.2367C68.0591 22.2367 67.9698 24.0684 67.9698 26.3246Z" fill="url(#paint2_linear_25_372)"/>
<path d="M29.0066 16.3475V19.2514C3.31759 28.2984 -6.82457 74.4268 28.9166 90.9571C-8.6116 80.3241 -8.29828 29.4153 29.0066 16.3475Z" fill="url(#paint3_linear_25_372)"/>
<defs>
<linearGradient id="paint0_linear_25_372" x1="87" y1="55" x2="0.999998" y2="55" gradientUnits="userSpaceOnUse">
<stop stop-color="#1A47BB"/>
<stop offset="1" stop-color="#EC9640"/>
</linearGradient>
<linearGradient id="paint1_linear_25_372" x1="87" y1="55" x2="0.999998" y2="55" gradientUnits="userSpaceOnUse">
<stop stop-color="#1A47BB"/>
<stop offset="1" stop-color="#EC9640"/>
</linearGradient>
<linearGradient id="paint2_linear_25_372" x1="87" y1="55" x2="0.999998" y2="55" gradientUnits="userSpaceOnUse">
<stop stop-color="#1A47BB"/>
<stop offset="1" stop-color="#EC9640"/>
</linearGradient>
<linearGradient id="paint3_linear_25_372" x1="87" y1="55" x2="0.999998" y2="55" gradientUnits="userSpaceOnUse">
<stop stop-color="#1A47BB"/>
<stop offset="1" stop-color="#EC9640"/>
</linearGradient>
</defs>
</svg>
